<?xml version="1.0" encoding="UTF-8" standalone="no"?>
<!-- Generator: Gravit.io -->
<svg xmlns="http://www.w3.org/2000/svg" xmlns:xlink="http://www.w3.org/1999/xlink" style="isolation:isolate" viewBox="236 433.012 532.8 140.988" width="532.8" height="140.988"><g><linearGradient id="_lgradient_7" x1="0" y1="0.5" x2="1" y2="0.5" gradientTransform="matrix(0,-133.064,-148.427,0,384.427,574)" gradientUnits="userSpaceOnUse"><stop offset="0%" stop-opacity="1" style="stop-color:rgb(134,41,150)"/><stop offset="1.0737184505617414e-14%" stop-opacity="1" style="stop-color:rgb(134,41,150)"/><stop offset="1.6292962342091741e-13%" stop-opacity="1.0000000000000002" style="stop-color:rgb(134,41,150)"/><stop offset="10%" stop-opacity="1" style="stop-color:rgb(146,41,150)"/><stop offset="20%" stop-opacity="1" style="stop-color:rgb(158,42,150)"/><stop offset="30.000000000000004%" stop-opacity="1" style="stop-color:rgb(169,43,151)"/><stop offset="40%" stop-opacity="1" style="stop-color:rgb(181,43,151)"/><stop offset="50%" stop-opacity="1" style="stop-color:rgb(193,44,151)"/><stop offset="60%" stop-opacity="1" style="stop-color:rgb(204,45,152)"/><stop offset="70%" stop-opacity="1" style="stop-color:rgb(216,46,152)"/><stop offset="80%" stop-opacity="1" style="stop-color:rgb(228,46,152)"/><stop offset="89.99999999999999%" stop-opacity="1" style="stop-color:rgb(239,47,152)"/><stop offset="99.99999999999999%" stop-opacity="1" style="stop-color:rgb(251,48,153)"/></linearGradient><path d=" M 363.386 496.377 C 357.934 492.245 353.087 487.322 347.906 482.823 L 347.906 482.823 C 341.391 477.166 335.102 471.187 328.169 466.088 L 328.169 466.088 C 321.86 461.449 314.462 459.566 306.536 461.701 L 306.536 461.701 C 295.883 464.568 288.725 472.008 282.301 480.376 L 282.301 480.376 C 282.257 480.433 282.514 480.721 282.745 481.081 L 282.745 481.081 C 283.759 480.282 284.735 479.488 285.736 478.728 L 285.736 478.728 C 292.852 473.327 300.222 468.295 309.097 466.325 L 309.097 466.325 C 314.199 465.193 319.363 465.113 323.825 469.557 L 323.825 469.557 C 320.389 472.57 317.237 475.502 313.911 478.223 L 313.911 478.223 C 299.214 490.244 283.565 500.513 264.266 503.35 L 264.266 503.35 C 254.735 504.752 245.335 504.106 236 499.391 L 236 499.391 C 238.47 496.418 240.531 493.841 242.692 491.35 L 242.692 491.35 C 255.721 476.336 269.425 462.063 285.761 450.497 L 285.761 450.497 C 303.228 438.131 314.857 437.733 332.583 449.463 L 332.583 449.463 C 345.184 457.802 356.047 468.139 366.284 479.149 L 366.284 479.149 C 372.418 485.744 378.281 492.59 384.427 499.506 L 384.427 499.506 C 376.241 503.502 369.446 500.971 363.386 496.377 L 363.386 496.377 L 363.386 496.377 L 363.386 496.377 L 363.386 496.377 L 363.386 496.377 L 363.386 496.377 Z  M 348.15 501.648 C 338.916 494.008 329.882 486.127 321.284 478.783 L 321.284 478.783 C 323.642 476.188 325.485 474.16 327.413 472.038 L 327.413 472.038 C 338.346 482.205 349.269 492.364 360.787 503.075 L 360.787 503.075 C 355.79 504.481 351.606 504.506 348.15 501.648 L 348.15 501.648 L 348.15 501.648 L 348.15 501.648 L 348.15 501.648 L 348.15 501.648 L 348.15 501.648 Z  M 341.172 503.19 C 328.669 502.568 323.529 490.587 314.032 484.781 L 314.032 484.781 C 315.727 483.022 317.035 481.666 318.585 480.057 L 318.585 480.057 C 326.725 487.63 334.403 494.772 342.082 501.915 L 342.082 501.915 L 341.172 503.19 L 341.172 503.19 L 341.172 503.19 L 341.172 503.19 L 341.172 503.19 L 341.172 503.19 Z  M 328.286 503.383 C 319.407 502.626 315.545 494.417 309.248 490.276 L 309.248 490.276 C 310.203 488.931 311.005 487.801 311.915 486.518 L 311.915 486.518 C 317.845 492.04 323.363 497.178 328.88 502.317 L 328.88 502.317 C 328.683 502.672 328.484 503.027 328.286 503.383 L 328.286 503.383 L 328.286 503.383 L 328.286 503.383 L 328.286 503.383 Z  M 377.734 523.586 C 364.706 538.6 351.002 552.873 334.666 564.439 L 334.666 564.439 C 317.2 576.804 305.57 577.204 287.844 565.473 L 287.844 565.473 C 275.244 557.135 264.38 546.797 254.142 535.787 L 254.142 535.787 C 248.01 529.191 242.147 522.346 236 515.43 L 236 515.43 C 244.187 511.434 250.981 513.966 257.041 518.559 L 257.041 518.559 C 262.493 522.691 267.341 527.614 272.52 532.112 L 272.52 532.112 C 279.036 537.771 285.326 543.75 292.259 548.848 L 292.259 548.848 C 298.567 553.487 305.964 555.37 313.891 553.235 L 313.891 553.235 C 324.545 550.367 331.702 542.929 338.126 534.56 L 338.126 534.56 C 338.17 534.503 337.914 534.214 337.683 533.855 L 337.683 533.855 C 336.669 534.654 335.693 535.448 334.691 536.208 L 334.691 536.208 C 327.575 541.609 320.205 546.642 311.33 548.611 L 311.33 548.611 C 306.228 549.742 301.064 549.823 296.602 545.38 L 296.602 545.38 C 300.038 542.366 303.19 539.433 306.516 536.713 L 306.516 536.713 C 321.213 524.692 336.862 514.423 356.161 511.586 L 356.161 511.586 C 365.692 510.184 375.092 510.831 384.427 515.545 L 384.427 515.545 C 381.957 518.518 379.896 521.095 377.734 523.586 L 377.734 523.586 L 377.734 523.586 L 377.734 523.586 Z  M 293.014 542.942 C 282.081 532.775 271.158 522.617 259.64 511.905 L 259.64 511.905 C 264.637 510.499 268.822 510.474 272.277 513.333 L 272.277 513.333 C 281.511 520.972 290.546 528.853 299.143 536.197 L 299.143 536.197 C 296.785 538.792 294.942 540.82 293.014 542.942 L 293.014 542.942 L 293.014 542.942 Z  M 301.843 534.923 C 293.702 527.351 286.024 520.208 278.345 513.066 L 278.345 513.066 C 278.648 512.64 278.951 512.215 279.254 511.79 L 279.254 511.79 C 291.758 512.413 296.898 524.393 306.395 530.199 L 306.395 530.199 C 304.7 531.957 303.392 533.315 301.843 534.923 L 301.843 534.923 Z  M 308.512 528.462 C 302.582 522.94 297.064 517.802 291.547 512.664 L 291.547 512.664 C 291.745 512.308 291.943 511.952 292.141 511.597 L 292.141 511.597 C 301.02 512.354 304.882 520.564 311.18 524.705 L 311.18 524.705 C 310.225 526.049 309.422 527.179 308.512 528.462 Z " fill-rule="evenodd" fill="url(#_lgradient_7)"/><path d=" M 437.4 527.712 L 437.4 527.712 L 437.4 527.712 Q 432 527.712 427.55 525.462 L 427.55 525.462 L 427.55 525.462 Q 423.1 523.212 419.85 519.512 L 419.85 519.512 L 419.85 519.512 Q 416.6 515.812 414.8 511.012 L 414.8 511.012 L 414.8 511.012 Q 413 506.212 413 501.112 L 413 501.112 L 413 501.112 Q 413 495.712 414.75 490.762 L 414.75 490.762 L 414.75 490.762 Q 416.5 485.812 419.7 482.112 L 419.7 482.112 L 419.7 482.112 Q 422.9 478.412 427.35 476.212 L 427.35 476.212 L 427.35 476.212 Q 431.8 474.012 437.2 474.012 L 437.2 474.012 L 437.2 474.012 Q 443.9 474.012 448.8 477.362 L 448.8 477.362 L 448.8 477.362 Q 453.7 480.712 457.2 485.812 L 457.2 485.812 L 457.2 474.912 L 463.3 474.912 L 463.3 527.212 L 463.3 527.212 Q 463.3 532.612 461.25 536.762 L 461.25 536.762 L 461.25 536.762 Q 459.2 540.912 455.75 543.712 L 455.75 543.712 L 455.75 543.712 Q 452.3 546.512 447.65 547.912 L 447.65 547.912 L 447.65 547.912 Q 443 549.312 437.8 549.312 L 437.8 549.312 L 437.8 549.312 Q 428.8 549.312 423.3 546.112 L 423.3 546.112 L 423.3 546.112 Q 417.8 542.912 414.4 537.512 L 414.4 537.512 L 418.6 534.212 L 418.6 534.212 Q 421.7 539.212 426.8 541.562 L 426.8 541.562 L 426.8 541.562 Q 431.9 543.912 437.8 543.912 L 437.8 543.912 L 437.8 543.912 Q 441.6 543.912 445 542.862 L 445 542.862 L 445 542.862 Q 448.4 541.812 450.95 539.762 L 450.95 539.762 L 450.95 539.762 Q 453.5 537.712 455 534.562 L 455 534.562 L 455 534.562 Q 456.5 531.412 456.5 527.212 L 456.5 527.212 L 456.5 516.912 L 456.5 516.912 Q 453.5 521.912 448.3 524.812 L 448.3 524.812 L 448.3 524.812 Q 443.1 527.712 437.4 527.712 Z  M 439.3 522.012 L 439.3 522.012 L 439.3 522.012 Q 442.3 522.012 445.2 520.912 L 445.2 520.912 L 445.2 520.912 Q 448.1 519.812 450.45 517.962 L 450.45 517.962 L 450.45 517.962 Q 452.8 516.112 454.4 513.812 L 454.4 513.812 L 454.4 513.812 Q 456 511.512 456.5 509.112 L 456.5 509.112 L 456.5 493.012 L 456.5 493.012 Q 455.4 490.212 453.5 487.812 L 453.5 487.812 L 453.5 487.812 Q 451.6 485.412 449.2 483.712 L 449.2 483.712 L 449.2 483.712 Q 446.8 482.012 444.05 481.012 L 444.05 481.012 L 444.05 481.012 Q 441.3 480.012 438.5 480.012 L 438.5 480.012 L 438.5 480.012 Q 434.1 480.012 430.65 481.862 L 430.65 481.862 L 430.65 481.862 Q 427.2 483.712 424.8 486.712 L 424.8 486.712 L 424.8 486.712 Q 422.4 489.712 421.15 493.512 L 421.15 493.512 L 421.15 493.512 Q 419.9 497.312 419.9 501.212 L 419.9 501.212 L 419.9 501.212 Q 419.9 505.412 421.4 509.212 L 421.4 509.212 L 421.4 509.212 Q 422.9 513.012 425.55 515.862 L 425.55 515.862 L 425.55 515.862 Q 428.2 518.712 431.7 520.362 L 431.7 520.362 L 431.7 520.362 Q 435.2 522.012 439.3 522.012 Z " fill="rgb(237,47,152)"/><path d=" M 495.8 528.012 L 495.8 528.012 L 495.8 528.012 Q 490.1 528.012 485.35 525.862 L 485.35 525.862 L 485.35 525.862 Q 480.6 523.712 477.1 519.962 L 477.1 519.962 L 477.1 519.962 Q 473.6 516.212 471.65 511.312 L 471.65 511.312 L 471.65 511.312 Q 469.7 506.412 469.7 500.812 L 469.7 500.812 L 469.7 500.812 Q 469.7 495.312 471.65 490.462 L 471.65 490.462 L 471.65 490.462 Q 473.6 485.612 477.05 481.962 L 477.05 481.962 L 477.05 481.962 Q 480.5 478.312 485.3 476.162 L 485.3 476.162 L 485.3 476.162 Q 490.1 474.012 495.7 474.012 L 495.7 474.012 L 495.7 474.012 Q 501.4 474.012 506.15 476.162 L 506.15 476.162 L 506.15 476.162 Q 510.9 478.312 514.3 482.012 L 514.3 482.012 L 514.3 482.012 Q 517.7 485.712 519.6 490.512 L 519.6 490.512 L 519.6 490.512 Q 521.5 495.312 521.5 500.712 L 521.5 500.712 L 521.5 500.712 Q 521.5 501.512 521.5 502.312 L 521.5 502.312 L 521.5 502.312 Q 521.5 503.112 521.4 503.412 L 521.4 503.412 L 476.8 503.412 L 476.8 503.412 Q 477.1 507.612 478.75 511.162 L 478.75 511.162 L 478.75 511.162 Q 480.4 514.712 483 517.312 L 483 517.312 L 483 517.312 Q 485.6 519.912 488.95 521.362 L 488.95 521.362 L 488.95 521.362 Q 492.3 522.812 496.1 522.812 L 496.1 522.812 L 496.1 522.812 Q 498.6 522.812 501.1 522.112 L 501.1 522.112 L 501.1 522.112 Q 503.6 521.412 505.7 520.212 L 505.7 520.212 L 505.7 520.212 Q 507.8 519.012 509.5 517.262 L 509.5 517.262 L 509.5 517.262 Q 511.2 515.512 512.1 513.412 L 512.1 513.412 L 518 515.012 L 518 515.012 Q 516.8 517.912 514.6 520.262 L 514.6 520.262 L 514.6 520.262 Q 512.4 522.612 509.5 524.362 L 509.5 524.362 L 509.5 524.362 Q 506.6 526.112 503.1 527.062 L 503.1 527.062 L 503.1 527.062 Q 499.6 528.012 495.8 528.012 Z  M 476.7 498.212 L 515 498.212 L 515 498.212 Q 514.7 494.012 513.05 490.562 L 513.05 490.562 L 513.05 490.562 Q 511.4 487.112 508.85 484.612 L 508.85 484.612 L 508.85 484.612 Q 506.3 482.112 502.95 480.712 L 502.95 480.712 L 502.95 480.712 Q 499.6 479.312 495.8 479.312 L 495.8 479.312 L 495.8 479.312 Q 492 479.312 488.6 480.712 L 488.6 480.712 L 488.6 480.712 Q 485.2 482.112 482.65 484.612 L 482.65 484.612 L 482.65 484.612 Q 480.1 487.112 478.55 490.612 L 478.55 490.612 L 478.55 490.612 Q 477 494.112 476.7 498.212 L 476.7 498.212 L 476.7 498.212 Z  M 604.5 496.512 L 604.5 527.012 L 597.7 527.012 L 597.7 497.912 L 597.7 497.912 Q 597.7 488.812 594.8 484.512 L 594.8 484.512 L 594.8 484.512 Q 591.9 480.212 586.2 480.212 L 586.2 480.212 L 586.2 480.212 Q 583.2 480.212 580.55 481.312 L 580.55 481.312 L 580.55 481.312 Q 577.9 482.412 575.65 484.412 L 575.65 484.412 L 575.65 484.412 Q 573.4 486.412 571.7 489.162 L 571.7 489.162 L 571.7 489.162 Q 570 491.912 569.1 495.212 L 569.1 495.212 L 569.1 527.012 L 562.3 527.012 L 562.3 497.912 L 562.3 497.912 Q 562.3 488.612 559.5 484.412 L 559.5 484.412 L 559.5 484.412 Q 556.7 480.212 550.9 480.212 L 550.9 480.212 L 550.9 480.212 Q 545 480.212 540.4 484.312 L 540.4 484.312 L 540.4 484.312 Q 535.8 488.412 533.8 495.112 L 533.8 495.112 L 533.8 527.012 L 527 527.012 L 527 474.912 L 533.2 474.912 L 533.2 486.712 L 533.2 486.712 Q 536.4 480.712 541.6 477.362 L 541.6 477.362 L 541.6 477.362 Q 546.8 474.012 553.1 474.012 L 553.1 474.012 L 553.1 474.012 Q 559.7 474.012 563.65 477.712 L 563.65 477.712 L 563.65 477.712 Q 567.6 481.412 568.5 487.412 L 568.5 487.412 L 568.5 487.412 Q 575.8 474.012 588.6 474.012 L 588.6 474.012 L 588.6 474.012 Q 593 474.012 596.05 475.612 L 596.05 475.612 L 596.05 475.612 Q 599.1 477.212 600.95 480.162 L 600.95 480.162 L 600.95 480.162 Q 602.8 483.112 603.65 487.262 L 603.65 487.262 L 603.65 487.262 Q 604.5 491.412 604.5 496.512 L 604.5 496.512 L 604.5 496.512 Z  M 620.7 527.012 L 613.9 527.012 L 613.9 474.912 L 620.7 474.912 L 620.7 527.012 L 620.7 527.012 Z  M 620.7 464.012 L 613.9 464.012 L 613.9 454.012 L 620.7 454.012 L 620.7 464.012 L 620.7 464.012 Z  M 674.5 496.512 L 674.5 527.012 L 667.7 527.012 L 667.7 497.912 L 667.7 497.912 Q 667.7 488.612 664.95 484.412 L 664.95 484.412 L 664.95 484.412 Q 662.2 480.212 656.5 480.212 L 656.5 480.212 L 656.5 480.212 Q 653.5 480.212 650.5 481.312 L 650.5 481.312 L 650.5 481.312 Q 647.5 482.412 644.95 484.412 L 644.95 484.412 L 644.95 484.412 Q 642.4 486.412 640.4 489.162 L 640.4 489.162 L 640.4 489.162 Q 638.4 491.912 637.5 495.112 L 637.5 495.112 L 637.5 527.012 L 630.7 527.012 L 630.7 474.912 L 636.9 474.912 L 636.9 486.712 L 636.9 486.712 Q 640.1 481.012 646.05 477.512 L 646.05 477.512 L 646.05 477.512 Q 652 474.012 659 474.012 L 659 474.012 L 659 474.012 Q 663.3 474.012 666.3 475.612 L 666.3 475.612 L 666.3 475.612 Q 669.3 477.212 671.1 480.112 L 671.1 480.112 L 671.1 480.112 Q 672.9 483.012 673.7 487.212 L 673.7 487.212 L 673.7 487.212 Q 674.5 491.412 674.5 496.512 L 674.5 496.512 L 674.5 496.512 Z  M 690.8 527.012 L 684 527.012 L 684 474.912 L 690.8 474.912 L 690.8 527.012 L 690.8 527.012 Z  M 690.8 464.012 L 684 464.012 L 684 454.012 L 690.8 454.012 L 690.8 464.012 L 690.8 464.012 Z  M 718.1 528.012 L 718.1 528.012 L 718.1 528.012 Q 712 528.012 706.2 526.012 L 706.2 526.012 L 706.2 526.012 Q 700.4 524.012 696.2 520.212 L 696.2 520.212 L 699.3 515.612 L 699.3 515.612 Q 703.7 519.212 708.25 521.012 L 708.25 521.012 L 708.25 521.012 Q 712.8 522.812 718 522.812 L 718 522.812 L 718 522.812 Q 724.3 522.812 728.05 520.262 L 728.05 520.262 L 728.05 520.262 Q 731.8 517.712 731.8 513.012 L 731.8 513.012 L 731.8 513.012 Q 731.8 510.812 730.8 509.362 L 730.8 509.362 L 730.8 509.362 Q 729.8 507.912 727.85 506.812 L 727.85 506.812 L 727.85 506.812 Q 725.9 505.712 722.95 504.862 L 722.95 504.862 L 722.95 504.862 Q 720 504.012 716.1 503.112 L 716.1 503.112 L 716.1 503.112 Q 711.6 502.012 708.3 500.912 L 708.3 500.912 L 708.3 500.912 Q 705 499.812 702.85 498.412 L 702.85 498.412 L 702.85 498.412 Q 700.7 497.012 699.65 494.962 L 699.65 494.962 L 699.65 494.962 Q 698.6 492.912 698.6 489.812 L 698.6 489.812 L 698.6 489.812 Q 698.6 485.912 700.15 482.912 L 700.15 482.912 L 700.15 482.912 Q 701.7 479.912 704.35 477.962 L 704.35 477.962 L 704.35 477.962 Q 707 476.012 710.55 475.012 L 710.55 475.012 L 710.55 475.012 Q 714.1 474.012 718.1 474.012 L 718.1 474.012 L 718.1 474.012 Q 724.1 474.012 729 475.962 L 729 475.962 L 729 475.962 Q 733.9 477.912 736.9 481.112 L 736.9 481.112 L 733.6 485.112 L 733.6 485.112 Q 730.7 482.112 726.55 480.612 L 726.55 480.612 L 726.55 480.612 Q 722.4 479.112 717.9 479.112 L 717.9 479.112 L 717.9 479.112 Q 715.2 479.112 712.9 479.662 L 712.9 479.662 L 712.9 479.662 Q 710.6 480.212 708.85 481.412 L 708.85 481.412 L 708.85 481.412 Q 707.1 482.612 706.1 484.462 L 706.1 484.462 L 706.1 484.462 Q 705.1 486.312 705.1 488.812 L 705.1 488.812 L 705.1 488.812 Q 705.1 490.912 705.8 492.212 L 705.8 492.212 L 705.8 492.212 Q 706.5 493.512 708.1 494.462 L 708.1 494.462 L 708.1 494.462 Q 709.7 495.412 712.15 496.162 L 712.15 496.162 L 712.15 496.162 Q 714.6 496.912 718.1 497.712 L 718.1 497.712 L 718.1 497.712 Q 723.1 498.912 726.9 500.112 L 726.9 500.112 L 726.9 500.112 Q 730.7 501.312 733.25 502.912 L 733.25 502.912 L 733.25 502.912 Q 735.8 504.512 737.1 506.812 L 737.1 506.812 L 737.1 506.812 Q 738.4 509.112 738.4 512.412 L 738.4 512.412 L 738.4 512.412 Q 738.4 519.612 732.9 523.812 L 732.9 523.812 L 732.9 523.812 Q 727.4 528.012 718.1 528.012 Z " fill="rgb(255,255,255)"/></g></svg>