<?xml version="1.0" encoding="UTF-8" standalone="no"?>
<!-- Generator: Gravit.io -->
<svg xmlns="http://www.w3.org/2000/svg" xmlns:xlink="http://www.w3.org/1999/xlink" style="isolation:isolate" viewBox="231.573 440.936 148.427 133.064" width="148.427" height="133.064"><linearGradient id="_lgradient_3" x1="0" y1="0.5" x2="1" y2="0.5" gradientTransform="matrix(0,-133.064,-148.427,0,380,574)" gradientUnits="userSpaceOnUse"><stop offset="0%" stop-opacity="1" style="stop-color:rgb(134,41,150)"/><stop offset="1.0737184505617414e-14%" stop-opacity="1" style="stop-color:rgb(134,41,150)"/><stop offset="1.6292962342091741e-13%" stop-opacity="1.0000000000000002" style="stop-color:rgb(134,41,150)"/><stop offset="10%" stop-opacity="1" style="stop-color:rgb(146,41,150)"/><stop offset="20%" stop-opacity="1" style="stop-color:rgb(158,42,150)"/><stop offset="30.000000000000004%" stop-opacity="1" style="stop-color:rgb(169,43,151)"/><stop offset="40%" stop-opacity="1" style="stop-color:rgb(181,43,151)"/><stop offset="50%" stop-opacity="1" style="stop-color:rgb(193,44,151)"/><stop offset="60%" stop-opacity="1" style="stop-color:rgb(204,45,152)"/><stop offset="70%" stop-opacity="1" style="stop-color:rgb(216,46,152)"/><stop offset="80%" stop-opacity="1" style="stop-color:rgb(228,46,152)"/><stop offset="89.99999999999999%" stop-opacity="1" style="stop-color:rgb(239,47,152)"/><stop offset="99.99999999999999%" stop-opacity="1" style="stop-color:rgb(251,48,153)"/></linearGradient><path d=" M 358.958 496.377 C 353.507 492.245 348.659 487.322 343.479 482.823 L 343.479 482.823 C 336.964 477.166 330.674 471.187 323.741 466.088 L 323.741 466.088 C 317.433 461.449 310.035 459.566 302.109 461.701 L 302.109 461.701 C 291.455 464.568 284.298 472.008 277.874 480.376 L 277.874 480.376 C 277.83 480.433 278.086 480.721 278.317 481.081 L 278.317 481.081 C 279.331 480.282 280.307 479.488 281.309 478.728 L 281.309 478.728 C 288.425 473.327 295.795 468.295 304.669 466.325 L 304.669 466.325 C 309.772 465.193 314.936 465.113 319.398 469.557 L 319.398 469.557 C 315.962 472.57 312.81 475.502 309.483 478.223 L 309.483 478.223 C 294.786 490.244 279.137 500.513 259.839 503.35 L 259.839 503.35 C 250.308 504.752 240.908 504.106 231.573 499.391 L 231.573 499.391 C 234.042 496.418 236.104 493.841 238.265 491.35 L 238.265 491.35 C 251.294 476.336 264.998 462.063 281.333 450.497 L 281.333 450.497 C 298.8 438.131 310.429 437.733 328.156 449.463 L 328.156 449.463 C 340.757 457.802 351.62 468.139 361.857 479.149 L 361.857 479.149 C 367.99 485.744 373.853 492.59 380 499.506 L 380 499.506 C 371.813 503.502 365.019 500.971 358.958 496.377 L 358.958 496.377 L 358.958 496.377 L 358.958 496.377 L 358.958 496.377 L 358.958 496.377 L 358.958 496.377 Z  M 343.723 501.648 C 334.489 494.008 325.454 486.127 316.857 478.783 L 316.857 478.783 C 319.215 476.188 321.058 474.16 322.986 472.038 L 322.986 472.038 C 333.918 482.205 344.842 492.364 356.36 503.075 L 356.36 503.075 C 351.363 504.481 347.178 504.506 343.723 501.648 L 343.723 501.648 L 343.723 501.648 L 343.723 501.648 L 343.723 501.648 L 343.723 501.648 L 343.723 501.648 Z  M 336.745 503.19 C 324.242 502.568 319.102 490.587 309.605 484.781 L 309.605 484.781 C 311.3 483.022 312.608 481.666 314.157 480.057 L 314.157 480.057 C 322.297 487.63 329.976 494.772 337.655 501.915 L 337.655 501.915 L 336.745 503.19 L 336.745 503.19 L 336.745 503.19 L 336.745 503.19 L 336.745 503.19 L 336.745 503.19 Z  M 323.859 503.383 C 314.98 502.626 311.118 494.417 304.821 490.276 L 304.821 490.276 C 305.775 488.931 306.577 487.801 307.488 486.518 L 307.488 486.518 C 313.418 492.04 318.936 497.178 324.453 502.317 L 324.453 502.317 C 324.255 502.672 324.057 503.027 323.859 503.383 L 323.859 503.383 L 323.859 503.383 L 323.859 503.383 L 323.859 503.383 Z  M 373.307 523.586 C 360.279 538.6 346.575 552.873 330.239 564.439 L 330.239 564.439 C 312.773 576.804 301.143 577.204 283.417 565.473 L 283.417 565.473 C 270.817 557.135 259.953 546.797 249.715 535.787 L 249.715 535.787 C 243.582 529.191 237.719 522.346 231.573 515.43 L 231.573 515.43 C 239.759 511.434 246.554 513.966 252.614 518.559 L 252.614 518.559 C 258.066 522.691 262.913 527.614 268.093 532.112 L 268.093 532.112 C 274.609 537.771 280.898 543.75 287.831 548.848 L 287.831 548.848 C 294.14 553.487 301.537 555.37 309.464 553.235 L 309.464 553.235 C 320.117 550.367 327.275 542.929 333.698 534.56 L 333.698 534.56 C 333.743 534.503 333.487 534.214 333.255 533.855 L 333.255 533.855 C 332.242 534.654 331.265 535.448 330.264 536.208 L 330.264 536.208 C 323.148 541.609 315.778 546.642 306.903 548.611 L 306.903 548.611 C 301.801 549.742 296.637 549.823 292.175 545.38 L 292.175 545.38 C 295.611 542.366 298.763 539.433 302.089 536.713 L 302.089 536.713 C 316.786 524.692 332.435 514.423 351.734 511.586 L 351.734 511.586 C 361.265 510.184 370.665 510.831 380 515.545 L 380 515.545 C 377.53 518.518 375.469 521.095 373.307 523.586 L 373.307 523.586 L 373.307 523.586 L 373.307 523.586 Z  M 288.587 542.942 C 277.654 532.775 266.73 522.617 255.213 511.905 L 255.213 511.905 C 260.21 510.499 264.394 510.474 267.849 513.333 L 267.849 513.333 C 277.084 520.972 286.118 528.853 294.715 536.197 L 294.715 536.197 C 292.358 538.792 290.515 540.82 288.587 542.942 L 288.587 542.942 L 288.587 542.942 Z  M 297.415 534.923 C 289.275 527.351 281.596 520.208 273.918 513.066 L 273.918 513.066 C 274.221 512.64 274.524 512.215 274.827 511.79 L 274.827 511.79 C 287.331 512.413 292.471 524.393 301.968 530.199 L 301.968 530.199 C 300.273 531.957 298.965 533.315 297.415 534.923 L 297.415 534.923 Z  M 304.085 528.462 C 298.155 522.94 292.637 517.802 287.12 512.664 L 287.12 512.664 C 287.318 512.308 287.516 511.952 287.714 511.597 L 287.714 511.597 C 296.592 512.354 300.454 520.564 306.752 524.705 L 306.752 524.705 C 305.797 526.049 304.995 527.179 304.085 528.462 Z " fill-rule="evenodd" fill="url(#_lgradient_3)"/></svg>