<?xml version="1.0" encoding="UTF-8" standalone="no"?>
<!-- Generator: Gravit.io -->
<svg xmlns="http://www.w3.org/2000/svg" xmlns:xlink="http://www.w3.org/1999/xlink" style="isolation:isolate" viewBox="502.086 397.333 89.726 44.209" width="89.726" height="44.209"><g><path d=" M 517.186 426.306 C 518.094 425.925 518.884 425.398 519.556 424.725 C 520.23 424.053 520.756 423.262 521.138 422.354 C 521.519 421.446 521.71 420.482 521.71 419.465 C 521.71 418.448 521.519 417.494 521.138 416.602 C 520.756 415.713 520.23 414.932 519.556 414.26 C 518.884 413.586 518.094 413.06 517.186 412.678 C 516.276 412.297 515.314 412.105 514.296 412.105 C 513.279 412.105 512.324 412.297 511.435 412.678 C 510.543 413.06 509.763 413.586 509.091 414.26 C 508.418 414.932 507.891 415.713 507.51 416.602 C 507.128 417.494 506.938 418.448 506.938 419.465 L 506.938 426.878 L 514.296 426.878 C 515.314 426.878 516.276 426.688 517.186 426.306 Z  M 514.296 407.254 C 516.004 407.254 517.595 407.573 519.067 408.208 C 520.538 408.844 521.838 409.716 522.964 410.825 C 524.09 411.933 524.971 413.224 525.608 414.696 C 526.243 416.166 526.562 417.757 526.562 419.465 C 526.562 421.137 526.243 422.718 525.608 424.208 C 524.971 425.698 524.09 427.006 522.964 428.132 C 521.838 429.26 520.538 430.141 519.067 430.776 C 517.595 431.413 516.004 431.73 514.296 431.73 L 506.938 431.73 L 506.938 441.542 L 502.086 441.542 L 502.086 419.465 C 502.086 417.757 502.403 416.166 503.04 414.696 C 503.675 413.224 504.547 411.933 505.656 410.825 C 506.764 409.716 508.063 408.844 509.554 408.208 C 511.044 407.573 512.624 407.254 514.296 407.254 Z " fill="rgb(255,255,255)"/><path d=" M 532.993 431.621 L 528.196 431.621 L 528.196 407.145 L 532.993 407.145 L 532.993 431.621 Z " fill="rgb(255,255,255)"/><path d=" M 565.592 431.621 L 560.74 431.621 L 560.74 397.333 L 565.592 397.333 L 565.592 431.621 Z " fill="rgb(255,255,255)"/><path d=" M 586.96 426.77 L 586.96 419.356 C 586.96 418.339 586.769 417.384 586.388 416.494 C 586.005 415.604 585.478 414.823 584.806 414.15 C 584.133 413.478 583.353 412.951 582.462 412.568 C 581.572 412.187 580.617 411.996 579.601 411.996 C 578.582 411.996 577.62 412.187 576.712 412.568 C 575.802 412.951 575.012 413.478 574.34 414.15 C 573.668 414.823 573.141 415.604 572.76 416.494 C 572.377 417.384 572.186 418.339 572.186 419.356 C 572.186 420.374 572.377 421.336 572.76 422.244 C 573.141 423.154 573.668 423.944 574.34 424.616 C 575.012 425.29 575.802 425.815 576.712 426.196 C 577.62 426.579 578.582 426.77 579.601 426.77 L 586.96 426.77 Z  M 579.601 407.146 C 581.308 407.146 582.898 407.463 584.37 408.099 C 585.842 408.735 587.132 409.607 588.241 410.715 C 589.349 411.824 590.221 413.114 590.857 414.586 C 591.493 416.058 591.812 417.648 591.812 419.356 L 591.812 431.622 L 579.601 431.622 C 577.929 431.622 576.348 431.303 574.858 430.667 C 573.368 430.032 572.058 429.15 570.933 428.023 C 569.806 426.898 568.925 425.588 568.289 424.098 C 567.653 422.608 567.336 421.028 567.336 419.356 C 567.336 417.648 567.653 416.058 568.289 414.586 C 568.925 413.114 569.806 411.824 570.933 410.715 C 572.058 409.607 573.368 408.735 574.858 408.099 C 576.348 407.463 577.929 407.146 579.601 407.146 Z " fill="rgb(255,255,255)"/><linearGradient id="_lgradient_0" x1="0.2544763388920832" y1="0.947674225663719" x2="0.9046124895159324" y2="0.3033951902026142" gradientTransform="matrix(23.859,0,0,-19.285,535.248,431.637)" gradientUnits="userSpaceOnUse"><stop offset="0%" stop-opacity="1" style="stop-color:rgb(226,59,19)"/><stop offset="100%" stop-opacity="1" style="stop-color:rgb(251,176,59)"/></linearGradient><path d=" M 553.54 414.448 C 553.916 415.576 553.955 418.724 553.959 419.357 L 553.959 419.357 C 553.857 420.247 552.936 426.605 546.832 426.605 L 546.832 426.605 C 543.876 426.605 541.872 425.524 540.711 423.301 L 540.711 423.301 C 539.743 421.453 539.705 419.492 539.705 419.492 L 539.705 419.492 C 539.705 419.479 539.717 418.624 539.993 417.513 L 539.993 417.513 C 537.215 419.08 535.881 421.432 535.248 423.227 L 535.248 423.227 C 536.427 427.217 539.663 431.637 546.832 431.637 L 546.832 431.637 C 555.48 431.637 558.524 424.069 558.96 419.893 L 558.96 419.893 L 558.989 419.899 C 559.409 416.125 558.571 412.352 558.571 412.352 L 558.571 412.352 C 556.473 413.609 553.54 414.448 553.54 414.448" fill="url(#_lgradient_0)"/><linearGradient id="_lgradient_1" x1="0.1986520013231896" y1="-0.007823790762008898" x2="0.7475988863160219" y2="0.8531561408732323" gradientTransform="matrix(24.184,0,0,-15.905,534.675,423.227)" gradientUnits="userSpaceOnUse"><stop offset="0%" stop-opacity="1" style="stop-color:rgb(0,0,0)"/><stop offset="100%" stop-opacity="1" style="stop-color:rgb(0,180,203)"/></linearGradient><path d=" M 534.675 419.479 C 534.675 420.553 534.837 421.864 535.248 423.227 L 535.248 423.227 C 535.881 421.432 537.215 419.08 539.993 417.513 L 539.993 417.513 C 540.132 416.927 540.345 416.268 540.668 415.621 L 540.668 415.621 C 541.771 413.421 543.649 412.352 546.413 412.352 L 546.413 412.352 C 556.013 412.352 558.331 409.699 558.859 408.117 L 558.859 408.117 C 558.859 408.117 552.936 407.321 546.413 407.321 L 546.413 407.321 C 537.125 407.321 534.675 415.273 534.675 419.479" fill="url(#_lgradient_1)"/></g></svg>